<mxfile host="app.diagrams.net" agent="Mozilla/5.0 (Windows NT 10.0; Win64; x64) AppleWebKit/537.36 (KHTML, like Gecko) Chrome/128.0.0.0 Safari/537.36" version="24.7.8">
  <diagram name="Page-1" id="4rGjodRsTPPC2vz77WWb">
    <mxGraphModel dx="1434" dy="818" grid="1" gridSize="10" guides="1" tooltips="1" connect="1" arrows="1" fold="1" page="1" pageScale="1" pageWidth="850" pageHeight="1100" math="0" shadow="0">
      <root>
        <mxCell id="0" />
        <mxCell id="1" parent="0" />
        <mxCell id="OXy7An4cuTSHC5Mjl8pR-1" value="USER" style="shape=umlActor;verticalLabelPosition=bottom;verticalAlign=top;html=1;outlineConnect=0;" parent="1" vertex="1">
          <mxGeometry x="10" y="452.5" width="30" height="60" as="geometry" />
        </mxCell>
        <mxCell id="OXy7An4cuTSHC5Mjl8pR-3" value="" style="rounded=0;whiteSpace=wrap;html=1;" parent="1" vertex="1">
          <mxGeometry x="165" y="395" width="600" height="310" as="geometry" />
        </mxCell>
        <mxCell id="fIfisMPaBDod_NENlYvS-2" value="USE CASE REQUESTING SERVICE" style="text;html=1;align=center;verticalAlign=middle;whiteSpace=wrap;rounded=0;" parent="1" vertex="1">
          <mxGeometry x="380" y="405" width="170" height="30" as="geometry" />
        </mxCell>
        <mxCell id="fIfisMPaBDod_NENlYvS-3" value="" style="endArrow=classic;html=1;rounded=0;" parent="1" source="OXy7An4cuTSHC5Mjl8pR-1" target="fIfisMPaBDod_NENlYvS-4" edge="1">
          <mxGeometry width="50" height="50" relative="1" as="geometry">
            <mxPoint x="135" y="755" as="sourcePoint" />
            <mxPoint x="185" y="705" as="targetPoint" />
          </mxGeometry>
        </mxCell>
        <mxCell id="fIfisMPaBDod_NENlYvS-6" value="" style="edgeStyle=orthogonalEdgeStyle;rounded=0;orthogonalLoop=1;jettySize=auto;html=1;" parent="1" source="fIfisMPaBDod_NENlYvS-4" target="fIfisMPaBDod_NENlYvS-5" edge="1">
          <mxGeometry relative="1" as="geometry" />
        </mxCell>
        <mxCell id="fIfisMPaBDod_NENlYvS-4" value="masukan jenis hama,&lt;div&gt;masukan kota, pilih jenis kebutuhan&lt;/div&gt;&lt;div&gt;&lt;br&gt;&lt;/div&gt;" style="ellipse;whiteSpace=wrap;html=1;" parent="1" vertex="1">
          <mxGeometry x="170" y="440" width="160" height="85" as="geometry" />
        </mxCell>
        <mxCell id="fIfisMPaBDod_NENlYvS-8" value="" style="edgeStyle=orthogonalEdgeStyle;rounded=0;orthogonalLoop=1;jettySize=auto;html=1;" parent="1" source="fIfisMPaBDod_NENlYvS-5" target="fIfisMPaBDod_NENlYvS-7" edge="1">
          <mxGeometry relative="1" as="geometry" />
        </mxCell>
        <mxCell id="fIfisMPaBDod_NENlYvS-5" value="Data diterima server" style="ellipse;whiteSpace=wrap;html=1;" parent="1" vertex="1">
          <mxGeometry x="350" y="442.5" width="120" height="80" as="geometry" />
        </mxCell>
        <mxCell id="wq5eWC4YXnd-Min_hPrx-6" style="edgeStyle=orthogonalEdgeStyle;rounded=0;orthogonalLoop=1;jettySize=auto;html=1;exitX=1;exitY=0.5;exitDx=0;exitDy=0;entryX=0;entryY=0.5;entryDx=0;entryDy=0;" edge="1" parent="1" source="fIfisMPaBDod_NENlYvS-7" target="wq5eWC4YXnd-Min_hPrx-5">
          <mxGeometry relative="1" as="geometry" />
        </mxCell>
        <mxCell id="fIfisMPaBDod_NENlYvS-7" value="Server Merequest&amp;nbsp;&lt;div&gt;to worker&lt;/div&gt;" style="ellipse;whiteSpace=wrap;html=1;" parent="1" vertex="1">
          <mxGeometry x="490" y="442.5" width="120" height="80" as="geometry" />
        </mxCell>
        <mxCell id="wq5eWC4YXnd-Min_hPrx-8" value="" style="edgeStyle=orthogonalEdgeStyle;rounded=0;orthogonalLoop=1;jettySize=auto;html=1;" edge="1" parent="1" source="wq5eWC4YXnd-Min_hPrx-5" target="wq5eWC4YXnd-Min_hPrx-7">
          <mxGeometry relative="1" as="geometry" />
        </mxCell>
        <mxCell id="wq5eWC4YXnd-Min_hPrx-5" value="worker accepting" style="ellipse;whiteSpace=wrap;html=1;" vertex="1" parent="1">
          <mxGeometry x="645" y="442.5" width="120" height="80" as="geometry" />
        </mxCell>
        <mxCell id="wq5eWC4YXnd-Min_hPrx-10" value="" style="edgeStyle=orthogonalEdgeStyle;rounded=0;orthogonalLoop=1;jettySize=auto;html=1;" edge="1" parent="1" source="wq5eWC4YXnd-Min_hPrx-7" target="wq5eWC4YXnd-Min_hPrx-9">
          <mxGeometry relative="1" as="geometry" />
        </mxCell>
        <mxCell id="wq5eWC4YXnd-Min_hPrx-7" value="Worker sending to&lt;div&gt;database&lt;/div&gt;" style="ellipse;whiteSpace=wrap;html=1;" vertex="1" parent="1">
          <mxGeometry x="645" y="560" width="120" height="80" as="geometry" />
        </mxCell>
        <mxCell id="wq5eWC4YXnd-Min_hPrx-9" value="The data is in the database and ready to be processed." style="ellipse;whiteSpace=wrap;html=1;" vertex="1" parent="1">
          <mxGeometry x="445" y="560" width="120" height="80" as="geometry" />
        </mxCell>
      </root>
    </mxGraphModel>
  </diagram>
</mxfile>
